<svg width="628" height="199" viewBox="0 0 628 199" fill="none" xmlns="http://www.w3.org/2000/svg">
<g clip-path="url(#clip0_661_187)">
<path fill-rule="evenodd" clip-rule="evenodd" d="M38.4368 60.4355C34.2468 60.4355 30.7549 63.9271 30.7549 68.1171V137.25C30.7549 141.44 34.2468 144.932 38.4368 144.932C42.6264 144.932 46.1183 141.44 46.1183 137.25V68.1171C46.1183 63.9271 42.6264 60.4355 38.4368 60.4355Z" fill="#7EB649"/>
<path fill-rule="evenodd" clip-rule="evenodd" d="M66.369 0.380859C62.1794 0.380859 58.6875 3.8724 58.6875 8.06238V78.5929C58.6875 82.7825 62.1794 86.2744 66.369 86.2744C70.559 86.2744 74.0505 82.7825 74.0505 78.5929V8.06238C74.0505 3.8724 70.559 0.380859 66.369 0.380859Z" fill="white"/>
<path fill-rule="evenodd" clip-rule="evenodd" d="M199.05 29.7109C194.86 29.7109 191.368 33.2025 191.368 37.3925V105.13C191.368 109.319 194.86 112.811 199.05 112.811C203.24 112.811 206.731 109.319 206.731 105.13V37.3925C206.731 33.2025 203.24 29.7109 199.05 29.7109Z" fill="#7EB649"/>
<path fill-rule="evenodd" clip-rule="evenodd" d="M426.702 29.7109C422.512 29.7109 419.719 33.2025 419.719 37.3925V105.13C419.719 109.319 422.512 112.811 426.702 112.811C430.892 112.811 434.384 109.319 434.384 105.13V37.3925C434.384 33.2025 430.892 29.7109 426.702 29.7109Z" fill="white"/>
<path fill-rule="evenodd" clip-rule="evenodd" d="M451.842 29.7109C447.652 29.7109 444.16 33.2025 444.16 37.3925V105.13C444.16 109.319 447.652 112.811 451.842 112.811C456.031 112.811 458.825 109.319 458.825 105.13V37.3925C458.825 33.2025 456.031 29.7109 451.842 29.7109Z" fill="white"/>
<path fill-rule="evenodd" clip-rule="evenodd" d="M524.467 29.7109C520.277 29.7109 516.785 33.2025 516.785 37.3925V105.13C516.785 109.319 520.277 112.811 524.467 112.811C528.657 112.811 532.148 109.319 532.148 105.13V37.3925C532.148 33.2025 528.657 29.7109 524.467 29.7109Z" fill="white"/>
<path fill-rule="evenodd" clip-rule="evenodd" d="M467.903 105.128C467.903 109.318 471.394 112.809 475.584 112.809H500.025C504.215 112.809 507.707 109.318 507.707 105.128C507.707 100.938 504.215 98.1445 500.025 98.1445H475.584C471.394 98.1445 467.903 100.938 467.903 105.128Z" fill="white"/>
<path fill-rule="evenodd" clip-rule="evenodd" d="M215.81 37.3925C215.81 41.5824 219.301 45.074 223.491 45.074H248.631V105.13C248.631 109.319 252.122 112.811 256.312 112.811C260.502 112.811 263.295 109.319 263.295 105.13V45.074H291.926C296.116 45.074 299.608 41.5824 299.608 37.3925C299.608 33.2025 296.116 29.7109 291.926 29.7109H256.312H223.491C219.301 29.7109 215.81 33.2025 215.81 37.3925Z" fill="#7EB649"/>
<path fill-rule="evenodd" clip-rule="evenodd" d="M92.9054 12.9512C88.7154 12.9512 85.9224 16.4427 85.9224 20.6327V82.7829C85.9224 86.9728 88.7154 90.4647 92.9054 90.4647C97.0954 90.4647 100.587 86.9728 100.587 82.7829V20.6327C100.587 16.4427 97.0954 12.9512 92.9054 12.9512Z" fill="#7EB649"/>
<path fill-rule="evenodd" clip-rule="evenodd" d="M38.4368 12.9512C34.2468 12.9512 30.7549 16.4427 30.7549 20.6327V42.2803C30.7549 46.4703 34.2468 49.9622 38.4368 49.9622C42.6264 49.9622 46.1183 46.4703 46.1183 42.2803V20.6327C46.1183 16.4427 42.6264 12.9512 38.4368 12.9512Z" fill="#7EB649"/>
<path fill-rule="evenodd" clip-rule="evenodd" d="M66.369 96.0508C62.1794 96.0508 58.6875 98.8439 58.6875 102.335V130.268C58.6875 134.458 62.1794 137.95 66.369 137.95C70.559 137.95 74.0505 134.458 74.0505 130.268V102.335C74.0505 98.8439 70.559 96.0508 66.369 96.0508Z" fill="#7EB649"/>
<path fill-rule="evenodd" clip-rule="evenodd" d="M8.40856 47.168C4.21858 47.168 0.727051 50.6595 0.727051 54.8495V93.9551C0.727051 98.1451 4.21858 100.939 8.40856 100.939C12.5985 100.939 16.0901 98.1451 16.0901 93.9551V54.8495C16.0901 50.6595 12.5985 47.168 8.40856 47.168Z" fill="white"/>
<path fill-rule="evenodd" clip-rule="evenodd" d="M123.631 77.1953C119.442 77.1953 115.95 80.6872 115.95 84.8772V110.016C115.95 114.206 119.442 116.999 123.631 116.999C127.821 116.999 130.615 114.206 130.615 110.016V84.8772C130.615 80.6872 127.821 77.1953 123.631 77.1953Z" fill="#7EB649"/>
<path fill-rule="evenodd" clip-rule="evenodd" d="M85.9222 107.923C85.9222 103.733 89.4137 100.939 92.9052 100.939C97.0952 100.939 100.587 103.733 100.587 107.923C100.587 112.578 100.587 117.233 100.587 121.889C100.587 123.518 100.587 125.148 100.587 126.777C100.587 134.459 99.8887 139.347 99.1902 142.14C95.6987 154.71 85.9222 164.486 72.6542 167.28C64.2742 169.375 55.5843 166.215 49.5718 162.222C47.4768 160.826 46.8162 157.503 48.2127 154.71C49.6096 150.52 53.7992 148.425 57.9896 149.822L59.3861 150.52C69.7715 155.741 80.7178 148.993 84.5257 140.744C85.5174 136.777 85.9222 125.868 85.9222 121.191V107.923ZM115.95 137.95C116.648 134.459 119.442 131.665 123.631 131.665C127.821 131.665 130.615 135.157 130.615 139.347C130.615 140.511 130.615 141.674 130.615 142.838C129.916 149.822 126.425 160.297 122.235 167.28C117.347 174.961 106.872 185.436 98.4918 189.626C85.9222 196.609 78.2407 198.704 66.3692 198.704C55.1962 198.704 42.6262 195.213 38.4366 191.023C36.4799 189.066 35.4383 186.05 36.3416 183.341C37.7381 179.151 42.6262 177.056 46.1181 178.453C50.9465 179.791 62.1002 185.456 78.9391 181.246C96.9493 176.397 115.95 157.125 115.95 137.95Z" fill="white"/>
<path fill-rule="evenodd" clip-rule="evenodd" d="M0.727051 123.984C0.727051 119.794 4.21858 116.303 8.40856 116.303C12.5985 116.303 16.0901 119.794 16.0901 123.984V133.062C16.163 141.781 20.7325 157.956 27.2631 164.486C29.3581 167.978 28.66 172.866 25.1681 174.961C21.6766 177.755 17.487 177.056 14.6935 173.565C11.2527 169.091 0.727051 153.901 0.727051 133.062V132.364V123.984Z" fill="#7EB649"/>
<path fill-rule="evenodd" clip-rule="evenodd" d="M542.623 35.2975C542.623 33.9009 543.321 31.8059 544.718 31.1075C548.21 29.0125 550.304 29.7109 552.399 31.1075C553.098 31.8059 563.572 41.5824 575.444 53.4536C595.695 73.705 597.092 75.1016 597.092 77.895C597.092 82.7831 592.204 86.275 588.014 84.18C586.617 83.4815 579.634 77.1966 571.952 69.515C564.271 61.8339 557.986 55.5489 557.986 55.5489V82.085V102.336V105.13C557.986 109.319 554.495 112.811 550.304 112.811C546.114 112.811 542.623 109.319 542.623 105.13V102.336V73.0069C542.623 73.0069 542.623 35.9959 542.623 35.2975ZM614.55 31.1075C617.343 29.7109 620.136 29.7109 620.835 29.7109C620.835 29.7109 620.835 29.7109 621.533 29.7109C623.628 29.7109 627.12 32.5044 627.12 34.5994C627.12 37.2605 627.12 40.1413 627.12 42.2805V104.431V105.13C627.12 109.319 623.628 112.811 619.438 112.811C615.248 112.811 611.757 109.319 611.757 105.13V103.733V81.3865V54.152L604.773 60.437L603.377 61.8339C599.885 65.325 594.997 64.627 592.204 61.8339C589.41 59.0404 589.41 54.152 592.204 51.359L599.187 44.3759C599.269 44.3759 612.859 32.4602 614.55 31.1075Z" fill="white"/>
<path fill-rule="evenodd" clip-rule="evenodd" d="M356.87 63.9285V45.074H374.328H377.819C388.294 45.074 388.992 45.074 391.786 45.7724C394.579 47.169 395.277 48.5655 395.277 50.6605C395.976 52.7555 395.976 56.2474 395.277 58.342C395.277 62.0391 389.966 63.9285 386.897 63.9285H372.233H356.87ZM341.507 67.4204V79.99C341.507 84.18 344.998 87.6715 349.188 87.6715C353.378 87.6715 356.87 84.18 356.87 79.99V79.2919H385.501C389.339 79.2919 394.957 79.242 395.277 84.8784C396.368 94.7517 394.883 96.8508 391.087 97.448C391.087 97.448 385.501 98.8445 369.439 98.8445H349.188C344.998 98.8445 341.507 101.638 341.507 105.828C341.507 110.018 344.998 113.509 349.188 113.509H370.836H372.233H372.931C397.372 112.811 399.467 112.113 404.355 107.923C409.244 103.034 408.648 99.2641 408.545 86.275C408.545 78.5935 408.545 75.8 407.149 74.4035C405.752 72.3085 405.752 71.61 407.149 69.515C408.545 67.4204 408.545 65.3251 408.545 57.6439C409.244 41.5825 406.45 34.5994 397.372 31.1075C393.881 30.4094 390.389 29.7109 378.518 29.7109C377.819 29.7109 377.819 29.7109 377.819 29.7109H351.981H349.188C344.998 29.7109 341.507 33.2025 341.507 37.3925V39.4874V67.4204Z" fill="white"/>
<path d="M191.582 167.58V149.334H193.511V167.58H191.582ZM202.993 167.58V151.002H196.581V149.334H211.334V151.002H204.922V167.58H202.993ZM212.168 161.324V159.708H218.997V161.324H212.168ZM230.201 167.71C229.002 167.71 227.925 167.441 226.969 166.902C226.013 166.346 225.257 165.547 224.701 164.504C224.145 163.462 223.867 162.202 223.867 160.725C223.867 159.23 224.145 157.97 224.701 156.945C225.275 155.903 226.039 155.112 226.995 154.573C227.951 154.035 229.02 153.765 230.201 153.765C231.505 153.765 232.669 154.061 233.694 154.651C234.737 155.225 235.553 156.033 236.144 157.076C236.735 158.118 237.03 159.335 237.03 160.725C237.03 162.098 236.735 163.314 236.144 164.374C235.553 165.417 234.737 166.233 233.694 166.824C232.669 167.415 231.505 167.71 230.201 167.71ZM223.137 167.58V148.239H224.988V157.936L224.727 160.699L224.91 163.462V167.58H223.137ZM230.071 166.068C231.044 166.068 231.913 165.851 232.677 165.417C233.442 164.965 234.05 164.339 234.502 163.54C234.954 162.723 235.18 161.785 235.18 160.725C235.18 159.647 234.954 158.709 234.502 157.91C234.05 157.11 233.442 156.493 232.677 156.059C231.913 155.607 231.044 155.381 230.071 155.381C229.098 155.381 228.22 155.607 227.438 156.059C226.674 156.493 226.065 157.11 225.614 157.91C225.179 158.709 224.962 159.647 224.962 160.725C224.962 161.785 225.179 162.723 225.614 163.54C226.065 164.339 226.674 164.965 227.438 165.417C228.22 165.851 229.098 166.068 230.071 166.068ZM240.803 167.58V153.895H242.654V167.58H240.803ZM241.741 150.872C241.359 150.872 241.038 150.742 240.777 150.481C240.516 150.22 240.386 149.907 240.386 149.542C240.386 149.178 240.516 148.873 240.777 148.63C241.038 148.37 241.359 148.239 241.741 148.239C242.124 148.239 242.445 148.361 242.706 148.604C242.967 148.847 243.097 149.151 243.097 149.516C243.097 149.899 242.967 150.22 242.706 150.481C242.463 150.742 242.141 150.872 241.741 150.872ZM247.803 167.58V148.239H249.654V167.58H247.803ZM254.803 167.58V153.895H256.654V167.58H254.803ZM255.742 150.872C255.359 150.872 255.038 150.742 254.777 150.481C254.517 150.22 254.386 149.907 254.386 149.542C254.386 149.178 254.517 148.873 254.777 148.63C255.038 148.37 255.359 148.239 255.742 148.239C256.124 148.239 256.445 148.361 256.706 148.604C256.967 148.847 257.097 149.151 257.097 149.516C257.097 149.899 256.967 150.22 256.706 150.481C256.463 150.742 256.141 150.872 255.742 150.872ZM278.903 153.765C280.015 153.765 280.979 153.982 281.796 154.417C282.63 154.834 283.273 155.477 283.725 156.346C284.194 157.215 284.429 158.309 284.429 159.63V167.58H282.578V159.812C282.578 158.37 282.23 157.284 281.535 156.554C280.858 155.807 279.893 155.433 278.642 155.433C277.704 155.433 276.887 155.633 276.192 156.033C275.514 156.415 274.984 156.98 274.602 157.727C274.237 158.457 274.054 159.343 274.054 160.386V167.58H272.204V159.812C272.204 158.37 271.856 157.284 271.161 156.554C270.466 155.807 269.493 155.433 268.242 155.433C267.321 155.433 266.513 155.633 265.818 156.033C265.123 156.415 264.584 156.98 264.202 157.727C263.837 158.457 263.654 159.343 263.654 160.386V167.58H261.803V153.895H263.576V157.597L263.289 156.945C263.706 155.955 264.375 155.181 265.296 154.625C266.235 154.052 267.338 153.765 268.607 153.765C269.945 153.765 271.083 154.104 272.021 154.782C272.96 155.442 273.568 156.441 273.846 157.779L273.116 157.493C273.516 156.38 274.219 155.486 275.227 154.808C276.253 154.113 277.478 153.765 278.903 153.765ZM289.448 167.58V148.239H291.298V167.58H289.448ZM305.023 167.58V164.556L304.945 164.061V159.004C304.945 157.84 304.615 156.945 303.955 156.32C303.312 155.694 302.347 155.381 301.061 155.381C300.175 155.381 299.332 155.529 298.533 155.824C297.734 156.12 297.056 156.511 296.5 156.997L295.666 155.616C296.361 155.025 297.195 154.573 298.168 154.26C299.141 153.93 300.166 153.765 301.244 153.765C303.016 153.765 304.38 154.208 305.336 155.095C306.309 155.963 306.796 157.293 306.796 159.083V167.58H305.023ZM300.305 167.71C299.28 167.71 298.385 167.545 297.621 167.215C296.873 166.868 296.3 166.398 295.9 165.808C295.501 165.199 295.301 164.504 295.301 163.722C295.301 163.01 295.466 162.367 295.796 161.793C296.144 161.203 296.7 160.733 297.464 160.386C298.246 160.021 299.289 159.839 300.592 159.839H305.31V161.22H300.644C299.324 161.22 298.403 161.455 297.881 161.924C297.377 162.393 297.125 162.975 297.125 163.67C297.125 164.452 297.429 165.078 298.038 165.547C298.646 166.016 299.497 166.251 300.592 166.251C301.635 166.251 302.53 166.016 303.277 165.547C304.042 165.06 304.598 164.365 304.945 163.462L305.362 164.739C305.015 165.643 304.406 166.364 303.538 166.902C302.686 167.441 301.609 167.71 300.305 167.71ZM311.822 167.58V153.895H313.595V157.623L313.412 156.971C313.795 155.929 314.438 155.138 315.341 154.599C316.245 154.043 317.366 153.765 318.704 153.765V155.564C318.634 155.564 318.565 155.564 318.495 155.564C318.426 155.546 318.356 155.538 318.287 155.538C316.844 155.538 315.715 155.981 314.898 156.867C314.082 157.736 313.673 158.978 313.673 160.594V167.58H311.822ZM329.066 153.765C330.179 153.765 331.152 153.982 331.986 154.417C332.837 154.834 333.498 155.477 333.967 156.346C334.453 157.215 334.697 158.309 334.697 159.63V167.58H332.846V159.812C332.846 158.37 332.481 157.284 331.751 156.554C331.039 155.807 330.031 155.433 328.728 155.433C327.754 155.433 326.903 155.633 326.173 156.033C325.461 156.415 324.905 156.98 324.505 157.727C324.123 158.457 323.931 159.343 323.931 160.386V167.58H322.081V153.895H323.853V157.649L323.567 156.945C324.001 155.955 324.696 155.181 325.652 154.625C326.608 154.052 327.746 153.765 329.066 153.765ZM339.696 167.58V153.895H341.546V167.58H339.696ZM340.634 150.872C340.252 150.872 339.93 150.742 339.67 150.481C339.409 150.22 339.279 149.907 339.279 149.542C339.279 149.178 339.409 148.873 339.67 148.63C339.93 148.37 340.252 148.239 340.634 148.239C341.016 148.239 341.338 148.361 341.598 148.604C341.859 148.847 341.989 149.151 341.989 149.516C341.989 149.899 341.859 150.22 341.598 150.481C341.355 150.742 341.034 150.872 340.634 150.872ZM353.518 167.58V153.895H355.29V157.623L355.108 156.971C355.49 155.929 356.133 155.138 357.037 154.599C357.94 154.043 359.061 153.765 360.399 153.765V155.564C360.33 155.564 360.26 155.564 360.191 155.564C360.121 155.546 360.052 155.538 359.982 155.538C358.54 155.538 357.41 155.981 356.593 156.867C355.777 157.736 355.368 158.978 355.368 160.594V167.58H353.518ZM363.776 167.58V153.895H365.627V167.58H363.776ZM364.714 150.872C364.332 150.872 364.011 150.742 363.75 150.481C363.489 150.22 363.359 149.907 363.359 149.542C363.359 149.178 363.489 148.873 363.75 148.63C364.011 148.37 364.332 148.239 364.714 148.239C365.097 148.239 365.418 148.361 365.679 148.604C365.94 148.847 366.07 149.151 366.07 149.516C366.07 149.899 365.94 150.22 365.679 150.481C365.436 150.742 365.114 150.872 364.714 150.872ZM374.295 167.58L368.222 153.895H370.151L375.729 166.59H374.816L380.473 153.895H382.297L376.198 167.58H374.295ZM390.1 167.71C388.779 167.71 387.589 167.415 386.529 166.824C385.486 166.216 384.661 165.391 384.053 164.348C383.444 163.288 383.14 162.08 383.14 160.725C383.14 159.352 383.444 158.144 384.053 157.102C384.661 156.059 385.486 155.242 386.529 154.651C387.572 154.061 388.762 153.765 390.1 153.765C391.455 153.765 392.654 154.061 393.697 154.651C394.757 155.242 395.582 156.059 396.173 157.102C396.782 158.144 397.086 159.352 397.086 160.725C397.086 162.08 396.782 163.288 396.173 164.348C395.582 165.391 394.757 166.216 393.697 166.824C392.637 167.415 391.438 167.71 390.1 167.71ZM390.1 166.068C391.09 166.068 391.968 165.851 392.733 165.417C393.497 164.965 394.097 164.339 394.531 163.54C394.983 162.723 395.209 161.785 395.209 160.725C395.209 159.647 394.983 158.709 394.531 157.91C394.097 157.11 393.497 156.493 392.733 156.059C391.968 155.607 391.099 155.381 390.126 155.381C389.153 155.381 388.284 155.607 387.519 156.059C386.755 156.493 386.147 157.11 385.695 157.91C385.243 158.709 385.017 159.647 385.017 160.725C385.017 161.785 385.243 162.723 385.695 163.54C386.147 164.339 386.755 164.965 387.519 165.417C388.284 165.851 389.144 166.068 390.1 166.068ZM398.831 172.767C398.275 172.767 397.745 172.689 397.241 172.533C396.719 172.394 396.285 172.176 395.938 171.881L396.589 170.473C397.145 170.943 397.858 171.177 398.727 171.177C399.456 171.177 400.012 170.96 400.395 170.526C400.794 170.091 400.994 169.448 400.994 168.597V153.895H402.845V168.597C402.845 169.865 402.497 170.873 401.802 171.62C401.125 172.385 400.134 172.767 398.831 172.767ZM401.933 150.872C401.55 150.872 401.229 150.742 400.968 150.481C400.708 150.22 400.577 149.907 400.577 149.542C400.577 149.178 400.708 148.873 400.968 148.63C401.229 148.37 401.55 148.239 401.933 148.239C402.315 148.239 402.636 148.361 402.897 148.604C403.158 148.847 403.288 149.151 403.288 149.516C403.288 149.899 403.158 150.22 402.897 150.481C402.654 150.742 402.332 150.872 401.933 150.872ZM408.017 167.58V148.239H409.867V167.58H408.017ZM423.593 167.58V164.556L423.514 164.061V159.004C423.514 157.84 423.184 156.945 422.524 156.32C421.881 155.694 420.916 155.381 419.631 155.381C418.744 155.381 417.902 155.529 417.102 155.824C416.303 156.12 415.625 156.511 415.069 156.997L414.235 155.616C414.93 155.025 415.764 154.573 416.737 154.26C417.71 153.93 418.736 153.765 419.813 153.765C421.586 153.765 422.95 154.208 423.905 155.095C424.879 155.963 425.365 157.293 425.365 159.083V167.58H423.593ZM418.875 167.71C417.849 167.71 416.954 167.545 416.19 167.215C415.443 166.868 414.869 166.398 414.47 165.808C414.07 165.199 413.87 164.504 413.87 163.722C413.87 163.01 414.035 162.367 414.365 161.793C414.713 161.203 415.269 160.733 416.033 160.386C416.815 160.021 417.858 159.839 419.161 159.839H423.879V161.22H419.214C417.893 161.22 416.972 161.455 416.451 161.924C415.947 162.393 415.695 162.975 415.695 163.67C415.695 164.452 415.999 165.078 416.607 165.547C417.215 166.016 418.067 166.251 419.161 166.251C420.204 166.251 421.099 166.016 421.846 165.547C422.611 165.06 423.167 164.365 423.514 163.462L423.931 164.739C423.584 165.643 422.976 166.364 422.107 166.902C421.255 167.441 420.178 167.71 418.875 167.71ZM437.377 153.765C438.49 153.765 439.463 153.982 440.297 154.417C441.148 154.834 441.809 155.477 442.278 156.346C442.764 157.215 443.008 158.309 443.008 159.63V167.58H441.157V159.812C441.157 158.37 440.792 157.284 440.062 156.554C439.35 155.807 438.342 155.433 437.039 155.433C436.065 155.433 435.214 155.633 434.484 156.033C433.772 156.415 433.216 156.98 432.816 157.727C432.434 158.457 432.242 159.343 432.242 160.386V167.58H430.392V153.895H432.164V157.649L431.877 156.945C432.312 155.955 433.007 155.181 433.963 154.625C434.918 154.052 436.057 153.765 437.377 153.765ZM452.333 167.71C451.048 167.71 450.057 167.363 449.362 166.668C448.667 165.973 448.319 164.991 448.319 163.722V150.872H450.17V163.618C450.17 164.417 450.37 165.034 450.77 165.469C451.187 165.903 451.777 166.12 452.542 166.12C453.359 166.12 454.036 165.886 454.575 165.417L455.227 166.746C454.862 167.076 454.419 167.319 453.897 167.476C453.393 167.632 452.872 167.71 452.333 167.71ZM445.869 155.433V153.895H454.341V155.433H445.869ZM458.596 167.58V153.895H460.446V167.58H458.596ZM459.534 150.872C459.152 150.872 458.83 150.742 458.57 150.481C458.309 150.22 458.179 149.907 458.179 149.542C458.179 149.178 458.309 148.873 458.57 148.63C458.83 148.37 459.152 148.239 459.534 148.239C459.916 148.239 460.238 148.361 460.499 148.604C460.759 148.847 460.89 149.151 460.89 149.516C460.89 149.899 460.759 150.22 460.499 150.481C460.255 150.742 459.934 150.872 459.534 150.872ZM465.596 167.58V153.895H467.368V157.623L467.186 156.971C467.568 155.929 468.211 155.138 469.115 154.599C470.018 154.043 471.139 153.765 472.477 153.765V155.564C472.408 155.564 472.338 155.564 472.269 155.564C472.199 155.546 472.13 155.538 472.06 155.538C470.618 155.538 469.488 155.981 468.672 156.867C467.855 157.736 467.447 158.978 467.447 160.594V167.58H465.596ZM475.854 167.58V153.895H477.705V167.58H475.854ZM476.793 150.872C476.41 150.872 476.089 150.742 475.828 150.481C475.568 150.22 475.437 149.907 475.437 149.542C475.437 149.178 475.568 148.873 475.828 148.63C476.089 148.37 476.41 148.239 476.793 148.239C477.175 148.239 477.496 148.361 477.757 148.604C478.018 148.847 478.148 149.151 478.148 149.516C478.148 149.899 478.018 150.22 477.757 150.481C477.514 150.742 477.192 150.872 476.793 150.872ZM486.53 167.71C485.4 167.71 484.331 167.554 483.324 167.241C482.316 166.911 481.525 166.503 480.952 166.016L481.786 164.556C482.342 164.973 483.054 165.338 483.923 165.651C484.792 165.947 485.704 166.094 486.66 166.094C487.963 166.094 488.902 165.894 489.475 165.495C490.049 165.078 490.335 164.53 490.335 163.853C490.335 163.349 490.17 162.958 489.84 162.68C489.527 162.384 489.11 162.167 488.589 162.028C488.068 161.872 487.485 161.741 486.842 161.637C486.2 161.533 485.557 161.411 484.914 161.272C484.288 161.133 483.715 160.933 483.193 160.673C482.672 160.395 482.246 160.021 481.916 159.552C481.603 159.083 481.447 158.457 481.447 157.675C481.447 156.928 481.655 156.259 482.072 155.668C482.489 155.077 483.098 154.617 483.897 154.286C484.714 153.939 485.704 153.765 486.869 153.765C487.755 153.765 488.641 153.887 489.527 154.13C490.414 154.356 491.143 154.66 491.717 155.042L490.909 156.528C490.301 156.111 489.649 155.816 488.954 155.642C488.259 155.451 487.564 155.355 486.869 155.355C485.635 155.355 484.722 155.572 484.132 156.007C483.558 156.424 483.271 156.963 483.271 157.623C483.271 158.144 483.428 158.553 483.741 158.848C484.071 159.143 484.497 159.378 485.018 159.552C485.557 159.708 486.139 159.839 486.764 159.943C487.407 160.047 488.042 160.177 488.667 160.334C489.31 160.473 489.892 160.673 490.414 160.933C490.952 161.177 491.378 161.533 491.691 162.002C492.021 162.454 492.186 163.053 492.186 163.801C492.186 164.6 491.96 165.295 491.508 165.886C491.074 166.459 490.431 166.911 489.579 167.241C488.745 167.554 487.729 167.71 486.53 167.71ZM502.568 153.765C503.68 153.765 504.653 153.982 505.487 154.417C506.338 154.834 506.999 155.477 507.468 156.346C507.955 157.215 508.198 158.309 508.198 159.63V167.58H506.347V159.812C506.347 158.37 505.982 157.284 505.252 156.554C504.54 155.807 503.532 155.433 502.229 155.433C501.256 155.433 500.404 155.633 499.674 156.033C498.962 156.415 498.406 156.98 498.006 157.727C497.624 158.457 497.433 159.343 497.433 160.386V167.58H495.582V148.239H497.433V157.649L497.068 156.945C497.502 155.955 498.197 155.181 499.153 154.625C500.109 154.052 501.247 153.765 502.568 153.765ZM537.118 153.765C538.23 153.765 539.194 153.982 540.011 154.417C540.845 154.834 541.488 155.477 541.94 156.346C542.409 157.215 542.644 158.309 542.644 159.63V167.58H540.793V159.812C540.793 158.37 540.446 157.284 539.751 156.554C539.073 155.807 538.108 155.433 536.857 155.433C535.919 155.433 535.102 155.633 534.407 156.033C533.729 156.415 533.199 156.98 532.817 157.727C532.452 158.457 532.27 159.343 532.27 160.386V167.58H530.419V159.812C530.419 158.37 530.071 157.284 529.376 156.554C528.681 155.807 527.708 155.433 526.457 155.433C525.536 155.433 524.728 155.633 524.033 156.033C523.338 156.415 522.799 156.98 522.417 157.727C522.052 158.457 521.869 159.343 521.869 160.386V167.58H520.019V153.895H521.791V157.597L521.504 156.945C521.921 155.955 522.59 155.181 523.511 154.625C524.45 154.052 525.553 153.765 526.822 153.765C528.16 153.765 529.298 154.104 530.236 154.782C531.175 155.442 531.783 156.441 532.061 157.779L531.331 157.493C531.731 156.38 532.435 155.486 533.443 154.808C534.468 154.113 535.693 153.765 537.118 153.765ZM556.238 167.58V164.556L556.16 164.061V159.004C556.16 157.84 555.83 156.945 555.17 156.32C554.527 155.694 553.562 155.381 552.276 155.381C551.39 155.381 550.547 155.529 549.748 155.824C548.949 156.12 548.271 156.511 547.715 156.997L546.881 155.616C547.576 155.025 548.41 154.573 549.383 154.26C550.356 153.93 551.382 153.765 552.459 153.765C554.231 153.765 555.595 154.208 556.551 155.095C557.524 155.963 558.011 157.293 558.011 159.083V167.58H556.238ZM551.521 167.71C550.495 167.71 549.6 167.545 548.836 167.215C548.089 166.868 547.515 166.398 547.115 165.808C546.716 165.199 546.516 164.504 546.516 163.722C546.516 163.01 546.681 162.367 547.011 161.793C547.359 161.203 547.915 160.733 548.679 160.386C549.461 160.021 550.504 159.839 551.807 159.839H556.525V161.22H551.859C550.539 161.22 549.618 161.455 549.096 161.924C548.592 162.393 548.34 162.975 548.34 163.67C548.34 164.452 548.645 165.078 549.253 165.547C549.861 166.016 550.712 166.251 551.807 166.251C552.85 166.251 553.745 166.016 554.492 165.547C555.257 165.06 555.813 164.365 556.16 163.462L556.577 164.739C556.23 165.643 555.622 166.364 554.753 166.902C553.901 167.441 552.824 167.71 551.521 167.71ZM563.038 167.58V153.895H564.81V157.623L564.628 156.971C565.01 155.929 565.653 155.138 566.556 154.599C567.46 154.043 568.581 153.765 569.919 153.765V155.564C569.849 155.564 569.78 155.564 569.71 155.564C569.641 155.546 569.571 155.538 569.502 155.538C568.06 155.538 566.93 155.981 566.113 156.867C565.297 157.736 564.888 158.978 564.888 160.594V167.58H563.038ZM574.756 164.035L574.808 161.663L583.331 153.895H585.599L579.578 159.656L578.535 160.542L574.756 164.035ZM573.296 167.58V148.239H575.147V167.58H573.296ZM583.905 167.58L578.196 160.464L579.395 159.03L586.172 167.58H583.905ZM597.272 167.58V164.556L597.194 164.061V159.004C597.194 157.84 596.863 156.945 596.203 156.32C595.56 155.694 594.596 155.381 593.31 155.381C592.424 155.381 591.581 155.529 590.781 155.824C589.982 156.12 589.304 156.511 588.748 156.997L587.914 155.616C588.609 155.025 589.443 154.573 590.417 154.26C591.39 153.93 592.415 153.765 593.492 153.765C595.265 153.765 596.629 154.208 597.585 155.095C598.558 155.963 599.044 157.293 599.044 159.083V167.58H597.272ZM592.554 167.71C591.529 167.71 590.634 167.545 589.869 167.215C589.122 166.868 588.548 166.398 588.149 165.808C587.749 165.199 587.549 164.504 587.549 163.722C587.549 163.01 587.714 162.367 588.045 161.793C588.392 161.203 588.948 160.733 589.713 160.386C590.495 160.021 591.537 159.839 592.841 159.839H597.559V161.22H592.893C591.572 161.22 590.651 161.455 590.13 161.924C589.626 162.393 589.374 162.975 589.374 163.67C589.374 164.452 589.678 165.078 590.286 165.547C590.894 166.016 591.746 166.251 592.841 166.251C593.883 166.251 594.778 166.016 595.525 165.547C596.29 165.06 596.846 164.365 597.194 163.462L597.611 164.739C597.263 165.643 596.655 166.364 595.786 166.902C594.935 167.441 593.857 167.71 592.554 167.71ZM602.585 167.58V166.355L611.708 154.808L612.099 155.433H602.742V153.895H613.559V155.095L604.462 166.668L603.993 166.042H613.741V167.58H602.585ZM617.384 167.58V153.895H619.235V167.58H617.384ZM618.322 150.872C617.94 150.872 617.619 150.742 617.358 150.481C617.097 150.22 616.967 149.907 616.967 149.542C616.967 149.178 617.097 148.873 617.358 148.63C617.619 148.37 617.94 148.239 618.322 148.239C618.705 148.239 619.026 148.361 619.287 148.604C619.547 148.847 619.678 149.151 619.678 149.516C619.678 149.899 619.547 150.22 619.287 150.481C619.043 150.742 618.722 150.872 618.322 150.872Z" fill="white"/>
</g>
<defs>
<clipPath id="clip0_661_187">
<rect width="628" height="199" fill="white"/>
</clipPath>
</defs>
</svg>
