<svg width="628" height="199" viewBox="0 0 628 199" fill="none" xmlns="http://www.w3.org/2000/svg">
<path fill-rule="evenodd" clip-rule="evenodd" d="M38.4368 60.4365C34.2468 60.4365 30.7549 63.9281 30.7549 68.118V137.251C30.7549 141.441 34.2468 144.933 38.4368 144.933C42.6264 144.933 46.1183 141.441 46.1183 137.251V68.118C46.1183 63.9281 42.6264 60.4365 38.4368 60.4365Z" fill="#FEFEFE"/>
<path fill-rule="evenodd" clip-rule="evenodd" d="M66.369 0.380859C62.1794 0.380859 58.6875 3.8724 58.6875 8.06238V78.5929C58.6875 82.7825 62.1794 86.2744 66.369 86.2744C70.559 86.2744 74.0505 82.7825 74.0505 78.5929V8.06238C74.0505 3.8724 70.559 0.380859 66.369 0.380859Z" fill="#FEFEFE"/>
<path fill-rule="evenodd" clip-rule="evenodd" d="M199.05 29.71C194.86 29.71 191.368 33.2015 191.368 37.3915V105.129C191.368 109.318 194.86 112.81 199.05 112.81C203.24 112.81 206.731 109.318 206.731 105.129V37.3915C206.731 33.2015 203.24 29.71 199.05 29.71Z" fill="#FEFEFE"/>
<path fill-rule="evenodd" clip-rule="evenodd" d="M426.702 29.71C422.512 29.71 419.719 33.2015 419.719 37.3915V105.129C419.719 109.318 422.512 112.81 426.702 112.81C430.892 112.81 434.384 109.318 434.384 105.129V37.3915C434.384 33.2015 430.892 29.71 426.702 29.71Z" fill="#FEFEFE"/>
<path fill-rule="evenodd" clip-rule="evenodd" d="M451.842 29.71C447.652 29.71 444.16 33.2015 444.16 37.3915V105.129C444.16 109.318 447.652 112.81 451.842 112.81C456.031 112.81 458.825 109.318 458.825 105.129V37.3915C458.825 33.2015 456.031 29.71 451.842 29.71Z" fill="#FEFEFE"/>
<path fill-rule="evenodd" clip-rule="evenodd" d="M524.467 29.71C520.277 29.71 516.785 33.2015 516.785 37.3915V105.129C516.785 109.318 520.277 112.81 524.467 112.81C528.657 112.81 532.148 109.318 532.148 105.129V37.3915C532.148 33.2015 528.657 29.71 524.467 29.71Z" fill="#FEFEFE"/>
<path fill-rule="evenodd" clip-rule="evenodd" d="M467.903 105.129C467.903 109.319 471.394 112.81 475.584 112.81H500.025C504.215 112.81 507.707 109.319 507.707 105.129C507.707 100.939 504.215 98.1455 500.025 98.1455H475.584C471.394 98.1455 467.903 100.939 467.903 105.129Z" fill="#FEFEFE"/>
<path fill-rule="evenodd" clip-rule="evenodd" d="M215.81 37.3915C215.81 41.5815 219.301 45.073 223.491 45.073H248.631V105.129C248.631 109.318 252.122 112.81 256.312 112.81C260.502 112.81 263.295 109.318 263.295 105.129V45.073H291.926C296.116 45.073 299.608 41.5815 299.608 37.3915C299.608 33.2015 296.116 29.71 291.926 29.71H256.312H223.491C219.301 29.71 215.81 33.2015 215.81 37.3915Z" fill="#FEFEFE"/>
<path fill-rule="evenodd" clip-rule="evenodd" d="M92.9054 12.9512C88.7154 12.9512 85.9224 16.4427 85.9224 20.6327V82.7829C85.9224 86.9728 88.7154 90.4647 92.9054 90.4647C97.0954 90.4647 100.587 86.9728 100.587 82.7829V20.6327C100.587 16.4427 97.0954 12.9512 92.9054 12.9512Z" fill="#FEFEFE"/>
<path fill-rule="evenodd" clip-rule="evenodd" d="M38.4368 12.9512C34.2468 12.9512 30.7549 16.4427 30.7549 20.6327V42.2803C30.7549 46.4703 34.2468 49.9622 38.4368 49.9622C42.6264 49.9622 46.1183 46.4703 46.1183 42.2803V20.6327C46.1183 16.4427 42.6264 12.9512 38.4368 12.9512Z" fill="#FEFEFE"/>
<path fill-rule="evenodd" clip-rule="evenodd" d="M66.369 96.0508C62.1794 96.0508 58.6875 98.8439 58.6875 102.335V130.268C58.6875 134.458 62.1794 137.95 66.369 137.95C70.559 137.95 74.0505 134.458 74.0505 130.268V102.335C74.0505 98.8439 70.559 96.0508 66.369 96.0508Z" fill="#FEFEFE"/>
<path fill-rule="evenodd" clip-rule="evenodd" d="M8.40856 47.168C4.21858 47.168 0.727051 50.6595 0.727051 54.8495V93.9551C0.727051 98.1451 4.21858 100.939 8.40856 100.939C12.5985 100.939 16.0901 98.1451 16.0901 93.9551V54.8495C16.0901 50.6595 12.5985 47.168 8.40856 47.168Z" fill="#FEFEFE"/>
<path fill-rule="evenodd" clip-rule="evenodd" d="M123.631 77.1963C119.442 77.1963 115.95 80.6882 115.95 84.8782V110.017C115.95 114.207 119.442 117 123.631 117C127.821 117 130.615 114.207 130.615 110.017V84.8782C130.615 80.6882 127.821 77.1963 123.631 77.1963Z" fill="#FEFEFE"/>
<path fill-rule="evenodd" clip-rule="evenodd" d="M85.9222 107.923C85.9222 103.733 89.4137 100.939 92.9052 100.939C97.0952 100.939 100.587 103.733 100.587 107.923C100.587 112.578 100.587 117.233 100.587 121.889C100.587 123.518 100.587 125.148 100.587 126.777C100.587 134.459 99.8887 139.347 99.1902 142.14C95.6987 154.71 85.9222 164.486 72.6542 167.28C64.2742 169.375 55.5843 166.215 49.5718 162.222C47.4768 160.826 46.8162 157.503 48.2127 154.71C49.6096 150.52 53.7992 148.425 57.9896 149.822L59.3861 150.52C69.7715 155.741 80.7178 148.993 84.5257 140.744C85.5174 136.777 85.9222 125.868 85.9222 121.191V107.923ZM115.95 137.95C116.648 134.459 119.442 131.665 123.631 131.665C127.821 131.665 130.615 135.157 130.615 139.347C130.615 140.511 130.615 141.674 130.615 142.838C129.916 149.822 126.425 160.297 122.235 167.28C117.347 174.961 106.872 185.436 98.4918 189.626C85.9222 196.609 78.2407 198.704 66.3692 198.704C55.1962 198.704 42.6262 195.213 38.4366 191.023C36.4799 189.066 35.4383 186.05 36.3416 183.341C37.7381 179.151 42.6262 177.056 46.1181 178.453C50.9465 179.791 62.1002 185.456 78.9391 181.246C96.9493 176.397 115.95 157.125 115.95 137.95Z" fill="#FEFEFE"/>
<path fill-rule="evenodd" clip-rule="evenodd" d="M0.727051 123.983C0.727051 119.793 4.21858 116.302 8.40856 116.302C12.5985 116.302 16.0901 119.793 16.0901 123.983V133.061C16.163 141.78 20.7325 157.955 27.2631 164.485C29.3581 167.977 28.66 172.865 25.1681 174.96C21.6766 177.754 17.487 177.055 14.6935 173.564C11.2527 169.09 0.727051 153.9 0.727051 133.061V132.363V123.983Z" fill="#FEFEFE"/>
<path fill-rule="evenodd" clip-rule="evenodd" d="M542.623 35.2965C542.623 33.9 543.321 31.805 544.718 31.1065C548.21 29.0115 550.304 29.71 552.399 31.1065C553.098 31.805 563.572 41.5815 575.444 53.4526C595.695 73.7041 597.092 75.1006 597.092 77.894C597.092 82.7821 592.204 86.274 588.014 84.179C586.617 83.4805 579.634 77.1956 571.952 69.5141C564.271 61.8329 557.986 55.5479 557.986 55.5479V82.084V102.335V105.129C557.986 109.318 554.495 112.81 550.304 112.81C546.114 112.81 542.623 109.318 542.623 105.129V102.335V73.006C542.623 73.006 542.623 35.995 542.623 35.2965ZM614.55 31.1065C617.343 29.71 620.136 29.71 620.835 29.71C620.835 29.71 620.835 29.71 621.533 29.71C623.628 29.71 627.12 32.5034 627.12 34.5984C627.12 37.2596 627.12 40.1403 627.12 42.2795V104.43V105.129C627.12 109.318 623.628 112.81 619.438 112.81C615.248 112.81 611.757 109.318 611.757 105.129V103.732V81.3856V54.151L604.773 60.436L603.377 61.8329C599.885 65.3241 594.997 64.626 592.204 61.8329C589.41 59.0395 589.41 54.1511 592.204 51.358L599.187 44.3749C599.269 44.3749 612.859 32.4592 614.55 31.1065Z" fill="#FEFEFE"/>
<path fill-rule="evenodd" clip-rule="evenodd" d="M356.87 63.9275V45.073H374.328H377.819C388.294 45.073 388.992 45.073 391.786 45.7714C394.579 47.168 395.277 48.5645 395.277 50.6595C395.976 52.7545 395.976 56.2464 395.277 58.341C395.277 62.0382 389.966 63.9275 386.897 63.9275H372.233H356.87ZM341.507 67.4195V79.989C341.507 84.179 344.998 87.6705 349.188 87.6705C353.378 87.6705 356.87 84.179 356.87 79.989V79.2909H385.501C389.339 79.2909 394.957 79.241 395.277 84.8774C396.368 94.7507 394.883 96.8499 391.087 97.447C391.087 97.447 385.501 98.8436 369.439 98.8436H349.188C344.998 98.8436 341.507 101.637 341.507 105.827C341.507 110.017 344.998 113.508 349.188 113.508H370.836H372.233H372.931C397.372 112.81 399.467 112.112 404.355 107.922C409.244 103.033 408.648 99.2631 408.545 86.274C408.545 78.5925 408.545 75.799 407.149 74.4025C405.752 72.3075 405.752 71.6091 407.149 69.5141C408.545 67.4195 408.545 65.3241 408.545 57.643C409.244 41.5815 406.45 34.5984 397.372 31.1065C393.881 30.4084 390.389 29.71 378.518 29.71C377.819 29.71 377.819 29.71 377.819 29.71H351.981H349.188C344.998 29.71 341.507 33.2015 341.507 37.3915V39.4865V67.4195Z" fill="#FEFEFE"/>
<path d="M191.582 167.579V149.333H193.511V167.579H191.582ZM202.993 167.579V151.001H196.581V149.333H211.334V151.001H204.922V167.579H202.993ZM212.168 161.323V159.707H218.997V161.323H212.168ZM230.201 167.709C229.002 167.709 227.925 167.44 226.969 166.901C226.013 166.345 225.257 165.546 224.701 164.503C224.145 163.461 223.867 162.201 223.867 160.724C223.867 159.229 224.145 157.969 224.701 156.944C225.275 155.902 226.039 155.111 226.995 154.572C227.951 154.034 229.02 153.764 230.201 153.764C231.505 153.764 232.669 154.06 233.694 154.65C234.737 155.224 235.553 156.032 236.144 157.075C236.735 158.117 237.03 159.334 237.03 160.724C237.03 162.097 236.735 163.313 236.144 164.373C235.553 165.416 234.737 166.232 233.694 166.823C232.669 167.414 231.505 167.709 230.201 167.709ZM223.137 167.579V148.238H224.988V157.935L224.727 160.698L224.91 163.461V167.579H223.137ZM230.071 166.067C231.044 166.067 231.913 165.85 232.677 165.416C233.442 164.964 234.05 164.338 234.502 163.539C234.954 162.722 235.18 161.784 235.18 160.724C235.18 159.646 234.954 158.708 234.502 157.909C234.05 157.109 233.442 156.492 232.677 156.058C231.913 155.606 231.044 155.38 230.071 155.38C229.098 155.38 228.22 155.606 227.438 156.058C226.674 156.492 226.065 157.109 225.614 157.909C225.179 158.708 224.962 159.646 224.962 160.724C224.962 161.784 225.179 162.722 225.614 163.539C226.065 164.338 226.674 164.964 227.438 165.416C228.22 165.85 229.098 166.067 230.071 166.067ZM240.803 167.579V153.895H242.654V167.579H240.803ZM241.741 150.871C241.359 150.871 241.038 150.741 240.777 150.48C240.516 150.219 240.386 149.906 240.386 149.542C240.386 149.177 240.516 148.872 240.777 148.629C241.038 148.369 241.359 148.238 241.741 148.238C242.124 148.238 242.445 148.36 242.706 148.603C242.967 148.846 243.097 149.151 243.097 149.515C243.097 149.898 242.967 150.219 242.706 150.48C242.463 150.741 242.141 150.871 241.741 150.871ZM247.803 167.579V148.238H249.654V167.579H247.803ZM254.803 167.579V153.895H256.654V167.579H254.803ZM255.742 150.871C255.359 150.871 255.038 150.741 254.777 150.48C254.517 150.219 254.386 149.906 254.386 149.542C254.386 149.177 254.517 148.872 254.777 148.629C255.038 148.369 255.359 148.238 255.742 148.238C256.124 148.238 256.445 148.36 256.706 148.603C256.967 148.846 257.097 149.151 257.097 149.515C257.097 149.898 256.967 150.219 256.706 150.48C256.463 150.741 256.141 150.871 255.742 150.871ZM278.903 153.764C280.015 153.764 280.979 153.981 281.796 154.416C282.63 154.833 283.273 155.476 283.725 156.345C284.194 157.214 284.429 158.308 284.429 159.629V167.579H282.578V159.811C282.578 158.369 282.23 157.283 281.535 156.553C280.858 155.806 279.893 155.432 278.642 155.432C277.704 155.432 276.887 155.632 276.192 156.032C275.514 156.414 274.984 156.979 274.602 157.726C274.237 158.456 274.054 159.342 274.054 160.385V167.579H272.204V159.811C272.204 158.369 271.856 157.283 271.161 156.553C270.466 155.806 269.493 155.432 268.242 155.432C267.321 155.432 266.513 155.632 265.818 156.032C265.123 156.414 264.584 156.979 264.202 157.726C263.837 158.456 263.654 159.342 263.654 160.385V167.579H261.803V153.895H263.576V157.596L263.289 156.944C263.706 155.954 264.375 155.18 265.296 154.624C266.235 154.051 267.338 153.764 268.607 153.764C269.945 153.764 271.083 154.103 272.021 154.781C272.96 155.441 273.568 156.44 273.846 157.778L273.116 157.492C273.516 156.379 274.219 155.485 275.227 154.807C276.253 154.112 277.478 153.764 278.903 153.764ZM289.448 167.579V148.238H291.298V167.579H289.448ZM305.023 167.579V164.555L304.945 164.06V159.003C304.945 157.839 304.615 156.944 303.955 156.319C303.312 155.693 302.347 155.38 301.061 155.38C300.175 155.38 299.332 155.528 298.533 155.823C297.734 156.119 297.056 156.51 296.5 156.996L295.666 155.615C296.361 155.024 297.195 154.572 298.168 154.259C299.141 153.929 300.166 153.764 301.244 153.764C303.016 153.764 304.38 154.207 305.336 155.094C306.309 155.962 306.796 157.292 306.796 159.082V167.579H305.023ZM300.305 167.709C299.28 167.709 298.385 167.544 297.621 167.214C296.873 166.867 296.3 166.397 295.9 165.807C295.501 165.198 295.301 164.503 295.301 163.721C295.301 163.009 295.466 162.366 295.796 161.792C296.144 161.202 296.7 160.732 297.464 160.385C298.246 160.02 299.289 159.838 300.592 159.838H305.31V161.219H300.644C299.324 161.219 298.403 161.454 297.881 161.923C297.377 162.392 297.125 162.974 297.125 163.669C297.125 164.451 297.429 165.077 298.038 165.546C298.646 166.015 299.497 166.25 300.592 166.25C301.635 166.25 302.53 166.015 303.277 165.546C304.042 165.059 304.598 164.364 304.945 163.461L305.362 164.738C305.015 165.642 304.406 166.363 303.538 166.901C302.686 167.44 301.609 167.709 300.305 167.709ZM311.822 167.579V153.895H313.595V157.622L313.412 156.97C313.795 155.928 314.438 155.137 315.341 154.598C316.245 154.042 317.366 153.764 318.704 153.764V155.563C318.634 155.563 318.565 155.563 318.495 155.563C318.426 155.545 318.356 155.537 318.287 155.537C316.844 155.537 315.715 155.98 314.898 156.866C314.082 157.735 313.673 158.977 313.673 160.593V167.579H311.822ZM329.066 153.764C330.179 153.764 331.152 153.981 331.986 154.416C332.837 154.833 333.498 155.476 333.967 156.345C334.453 157.214 334.697 158.308 334.697 159.629V167.579H332.846V159.811C332.846 158.369 332.481 157.283 331.751 156.553C331.039 155.806 330.031 155.432 328.728 155.432C327.754 155.432 326.903 155.632 326.173 156.032C325.461 156.414 324.905 156.979 324.505 157.726C324.123 158.456 323.931 159.342 323.931 160.385V167.579H322.081V153.895H323.853V157.648L323.567 156.944C324.001 155.954 324.696 155.18 325.652 154.624C326.608 154.051 327.746 153.764 329.066 153.764ZM339.696 167.579V153.895H341.546V167.579H339.696ZM340.634 150.871C340.252 150.871 339.93 150.741 339.67 150.48C339.409 150.219 339.279 149.906 339.279 149.542C339.279 149.177 339.409 148.872 339.67 148.629C339.93 148.369 340.252 148.238 340.634 148.238C341.016 148.238 341.338 148.36 341.598 148.603C341.859 148.846 341.989 149.151 341.989 149.515C341.989 149.898 341.859 150.219 341.598 150.48C341.355 150.741 341.034 150.871 340.634 150.871ZM353.518 167.579V153.895H355.29V157.622L355.108 156.97C355.49 155.928 356.133 155.137 357.037 154.598C357.94 154.042 359.061 153.764 360.399 153.764V155.563C360.33 155.563 360.26 155.563 360.191 155.563C360.121 155.545 360.052 155.537 359.982 155.537C358.54 155.537 357.41 155.98 356.593 156.866C355.777 157.735 355.368 158.977 355.368 160.593V167.579H353.518ZM363.776 167.579V153.895H365.627V167.579H363.776ZM364.714 150.871C364.332 150.871 364.011 150.741 363.75 150.48C363.489 150.219 363.359 149.906 363.359 149.542C363.359 149.177 363.489 148.872 363.75 148.629C364.011 148.369 364.332 148.238 364.714 148.238C365.097 148.238 365.418 148.36 365.679 148.603C365.94 148.846 366.07 149.151 366.07 149.515C366.07 149.898 365.94 150.219 365.679 150.48C365.436 150.741 365.114 150.871 364.714 150.871ZM374.295 167.579L368.222 153.895H370.151L375.729 166.589H374.816L380.473 153.895H382.297L376.198 167.579H374.295ZM390.1 167.709C388.779 167.709 387.589 167.414 386.529 166.823C385.486 166.215 384.661 165.39 384.053 164.347C383.444 163.287 383.14 162.079 383.14 160.724C383.14 159.351 383.444 158.143 384.053 157.101C384.661 156.058 385.486 155.241 386.529 154.65C387.572 154.06 388.762 153.764 390.1 153.764C391.455 153.764 392.654 154.06 393.697 154.65C394.757 155.241 395.582 156.058 396.173 157.101C396.782 158.143 397.086 159.351 397.086 160.724C397.086 162.079 396.782 163.287 396.173 164.347C395.582 165.39 394.757 166.215 393.697 166.823C392.637 167.414 391.438 167.709 390.1 167.709ZM390.1 166.067C391.09 166.067 391.968 165.85 392.733 165.416C393.497 164.964 394.097 164.338 394.531 163.539C394.983 162.722 395.209 161.784 395.209 160.724C395.209 159.646 394.983 158.708 394.531 157.909C394.097 157.109 393.497 156.492 392.733 156.058C391.968 155.606 391.099 155.38 390.126 155.38C389.153 155.38 388.284 155.606 387.519 156.058C386.755 156.492 386.147 157.109 385.695 157.909C385.243 158.708 385.017 159.646 385.017 160.724C385.017 161.784 385.243 162.722 385.695 163.539C386.147 164.338 386.755 164.964 387.519 165.416C388.284 165.85 389.144 166.067 390.1 166.067ZM398.831 172.766C398.275 172.766 397.745 172.688 397.241 172.532C396.719 172.393 396.285 172.175 395.938 171.88L396.589 170.472C397.145 170.942 397.858 171.176 398.727 171.176C399.456 171.176 400.012 170.959 400.395 170.525C400.794 170.09 400.994 169.447 400.994 168.596V153.895H402.845V168.596C402.845 169.864 402.497 170.872 401.802 171.619C401.125 172.384 400.134 172.766 398.831 172.766ZM401.933 150.871C401.55 150.871 401.229 150.741 400.968 150.48C400.708 150.219 400.577 149.906 400.577 149.542C400.577 149.177 400.708 148.872 400.968 148.629C401.229 148.369 401.55 148.238 401.933 148.238C402.315 148.238 402.636 148.36 402.897 148.603C403.158 148.846 403.288 149.151 403.288 149.515C403.288 149.898 403.158 150.219 402.897 150.48C402.654 150.741 402.332 150.871 401.933 150.871ZM408.017 167.579V148.238H409.867V167.579H408.017ZM423.593 167.579V164.555L423.514 164.06V159.003C423.514 157.839 423.184 156.944 422.524 156.319C421.881 155.693 420.916 155.38 419.631 155.38C418.744 155.38 417.902 155.528 417.102 155.823C416.303 156.119 415.625 156.51 415.069 156.996L414.235 155.615C414.93 155.024 415.764 154.572 416.737 154.259C417.71 153.929 418.736 153.764 419.813 153.764C421.586 153.764 422.95 154.207 423.905 155.094C424.879 155.962 425.365 157.292 425.365 159.082V167.579H423.593ZM418.875 167.709C417.849 167.709 416.954 167.544 416.19 167.214C415.443 166.867 414.869 166.397 414.47 165.807C414.07 165.198 413.87 164.503 413.87 163.721C413.87 163.009 414.035 162.366 414.365 161.792C414.713 161.202 415.269 160.732 416.033 160.385C416.815 160.02 417.858 159.838 419.161 159.838H423.879V161.219H419.214C417.893 161.219 416.972 161.454 416.451 161.923C415.947 162.392 415.695 162.974 415.695 163.669C415.695 164.451 415.999 165.077 416.607 165.546C417.215 166.015 418.067 166.25 419.161 166.25C420.204 166.25 421.099 166.015 421.846 165.546C422.611 165.059 423.167 164.364 423.514 163.461L423.931 164.738C423.584 165.642 422.976 166.363 422.107 166.901C421.255 167.44 420.178 167.709 418.875 167.709ZM437.377 153.764C438.49 153.764 439.463 153.981 440.297 154.416C441.148 154.833 441.809 155.476 442.278 156.345C442.764 157.214 443.008 158.308 443.008 159.629V167.579H441.157V159.811C441.157 158.369 440.792 157.283 440.062 156.553C439.35 155.806 438.342 155.432 437.039 155.432C436.065 155.432 435.214 155.632 434.484 156.032C433.772 156.414 433.216 156.979 432.816 157.726C432.434 158.456 432.242 159.342 432.242 160.385V167.579H430.392V153.895H432.164V157.648L431.877 156.944C432.312 155.954 433.007 155.18 433.963 154.624C434.918 154.051 436.057 153.764 437.377 153.764ZM452.333 167.709C451.048 167.709 450.057 167.362 449.362 166.667C448.667 165.972 448.319 164.99 448.319 163.721V150.871H450.17V163.617C450.17 164.416 450.37 165.033 450.77 165.468C451.187 165.902 451.777 166.119 452.542 166.119C453.359 166.119 454.036 165.885 454.575 165.416L455.227 166.745C454.862 167.075 454.419 167.318 453.897 167.475C453.393 167.631 452.872 167.709 452.333 167.709ZM445.869 155.432V153.895H454.341V155.432H445.869ZM458.596 167.579V153.895H460.446V167.579H458.596ZM459.534 150.871C459.152 150.871 458.83 150.741 458.57 150.48C458.309 150.219 458.179 149.906 458.179 149.542C458.179 149.177 458.309 148.872 458.57 148.629C458.83 148.369 459.152 148.238 459.534 148.238C459.916 148.238 460.238 148.36 460.499 148.603C460.759 148.846 460.89 149.151 460.89 149.515C460.89 149.898 460.759 150.219 460.499 150.48C460.255 150.741 459.934 150.871 459.534 150.871ZM465.596 167.579V153.895H467.368V157.622L467.186 156.97C467.568 155.928 468.211 155.137 469.115 154.598C470.018 154.042 471.139 153.764 472.477 153.764V155.563C472.408 155.563 472.338 155.563 472.269 155.563C472.199 155.545 472.13 155.537 472.06 155.537C470.618 155.537 469.488 155.98 468.672 156.866C467.855 157.735 467.447 158.977 467.447 160.593V167.579H465.596ZM475.854 167.579V153.895H477.705V167.579H475.854ZM476.793 150.871C476.41 150.871 476.089 150.741 475.828 150.48C475.568 150.219 475.437 149.906 475.437 149.542C475.437 149.177 475.568 148.872 475.828 148.629C476.089 148.369 476.41 148.238 476.793 148.238C477.175 148.238 477.496 148.36 477.757 148.603C478.018 148.846 478.148 149.151 478.148 149.515C478.148 149.898 478.018 150.219 477.757 150.48C477.514 150.741 477.192 150.871 476.793 150.871ZM486.53 167.709C485.4 167.709 484.331 167.553 483.324 167.24C482.316 166.91 481.525 166.502 480.952 166.015L481.786 164.555C482.342 164.973 483.054 165.337 483.923 165.65C484.792 165.946 485.704 166.093 486.66 166.093C487.963 166.093 488.902 165.894 489.475 165.494C490.049 165.077 490.335 164.529 490.335 163.852C490.335 163.348 490.17 162.957 489.84 162.679C489.527 162.383 489.11 162.166 488.589 162.027C488.068 161.871 487.485 161.74 486.842 161.636C486.2 161.532 485.557 161.41 484.914 161.271C484.288 161.132 483.715 160.932 483.193 160.672C482.672 160.394 482.246 160.02 481.916 159.551C481.603 159.082 481.447 158.456 481.447 157.674C481.447 156.927 481.655 156.258 482.072 155.667C482.489 155.076 483.098 154.616 483.897 154.285C484.714 153.938 485.704 153.764 486.869 153.764C487.755 153.764 488.641 153.886 489.527 154.129C490.414 154.355 491.143 154.659 491.717 155.041L490.909 156.527C490.301 156.11 489.649 155.815 488.954 155.641C488.259 155.45 487.564 155.354 486.869 155.354C485.635 155.354 484.722 155.571 484.132 156.006C483.558 156.423 483.271 156.962 483.271 157.622C483.271 158.143 483.428 158.552 483.741 158.847C484.071 159.142 484.497 159.377 485.018 159.551C485.557 159.707 486.139 159.838 486.764 159.942C487.407 160.046 488.042 160.176 488.667 160.333C489.31 160.472 489.892 160.672 490.414 160.932C490.952 161.176 491.378 161.532 491.691 162.001C492.021 162.453 492.186 163.052 492.186 163.8C492.186 164.599 491.96 165.294 491.508 165.885C491.074 166.458 490.431 166.91 489.579 167.24C488.745 167.553 487.729 167.709 486.53 167.709ZM502.568 153.764C503.68 153.764 504.653 153.981 505.487 154.416C506.338 154.833 506.999 155.476 507.468 156.345C507.955 157.214 508.198 158.308 508.198 159.629V167.579H506.347V159.811C506.347 158.369 505.982 157.283 505.252 156.553C504.54 155.806 503.532 155.432 502.229 155.432C501.256 155.432 500.404 155.632 499.674 156.032C498.962 156.414 498.406 156.979 498.006 157.726C497.624 158.456 497.433 159.342 497.433 160.385V167.579H495.582V148.238H497.433V157.648L497.068 156.944C497.502 155.954 498.197 155.18 499.153 154.624C500.109 154.051 501.247 153.764 502.568 153.764ZM537.118 153.764C538.23 153.764 539.194 153.981 540.011 154.416C540.845 154.833 541.488 155.476 541.94 156.345C542.409 157.214 542.644 158.308 542.644 159.629V167.579H540.793V159.811C540.793 158.369 540.446 157.283 539.751 156.553C539.073 155.806 538.108 155.432 536.857 155.432C535.919 155.432 535.102 155.632 534.407 156.032C533.729 156.414 533.199 156.979 532.817 157.726C532.452 158.456 532.27 159.342 532.27 160.385V167.579H530.419V159.811C530.419 158.369 530.071 157.283 529.376 156.553C528.681 155.806 527.708 155.432 526.457 155.432C525.536 155.432 524.728 155.632 524.033 156.032C523.338 156.414 522.799 156.979 522.417 157.726C522.052 158.456 521.869 159.342 521.869 160.385V167.579H520.019V153.895H521.791V157.596L521.504 156.944C521.921 155.954 522.59 155.18 523.511 154.624C524.45 154.051 525.553 153.764 526.822 153.764C528.16 153.764 529.298 154.103 530.236 154.781C531.175 155.441 531.783 156.44 532.061 157.778L531.331 157.492C531.731 156.379 532.435 155.485 533.443 154.807C534.468 154.112 535.693 153.764 537.118 153.764ZM556.238 167.579V164.555L556.16 164.06V159.003C556.16 157.839 555.83 156.944 555.17 156.319C554.527 155.693 553.562 155.38 552.276 155.38C551.39 155.38 550.547 155.528 549.748 155.823C548.949 156.119 548.271 156.51 547.715 156.996L546.881 155.615C547.576 155.024 548.41 154.572 549.383 154.259C550.356 153.929 551.382 153.764 552.459 153.764C554.231 153.764 555.595 154.207 556.551 155.094C557.524 155.962 558.011 157.292 558.011 159.082V167.579H556.238ZM551.521 167.709C550.495 167.709 549.6 167.544 548.836 167.214C548.089 166.867 547.515 166.397 547.115 165.807C546.716 165.198 546.516 164.503 546.516 163.721C546.516 163.009 546.681 162.366 547.011 161.792C547.359 161.202 547.915 160.732 548.679 160.385C549.461 160.02 550.504 159.838 551.807 159.838H556.525V161.219H551.859C550.539 161.219 549.618 161.454 549.096 161.923C548.592 162.392 548.34 162.974 548.34 163.669C548.34 164.451 548.645 165.077 549.253 165.546C549.861 166.015 550.712 166.25 551.807 166.25C552.85 166.25 553.745 166.015 554.492 165.546C555.257 165.059 555.813 164.364 556.16 163.461L556.577 164.738C556.23 165.642 555.622 166.363 554.753 166.901C553.901 167.44 552.824 167.709 551.521 167.709ZM563.038 167.579V153.895H564.81V157.622L564.628 156.97C565.01 155.928 565.653 155.137 566.556 154.598C567.46 154.042 568.581 153.764 569.919 153.764V155.563C569.849 155.563 569.78 155.563 569.71 155.563C569.641 155.545 569.571 155.537 569.502 155.537C568.06 155.537 566.93 155.98 566.113 156.866C565.297 157.735 564.888 158.977 564.888 160.593V167.579H563.038ZM574.756 164.034L574.808 161.662L583.331 153.895H585.599L579.578 159.655L578.535 160.541L574.756 164.034ZM573.296 167.579V148.238H575.147V167.579H573.296ZM583.905 167.579L578.196 160.463L579.395 159.029L586.172 167.579H583.905ZM597.272 167.579V164.555L597.194 164.06V159.003C597.194 157.839 596.863 156.944 596.203 156.319C595.56 155.693 594.596 155.38 593.31 155.38C592.424 155.38 591.581 155.528 590.781 155.823C589.982 156.119 589.304 156.51 588.748 156.996L587.914 155.615C588.609 155.024 589.443 154.572 590.417 154.259C591.39 153.929 592.415 153.764 593.492 153.764C595.265 153.764 596.629 154.207 597.585 155.094C598.558 155.962 599.044 157.292 599.044 159.082V167.579H597.272ZM592.554 167.709C591.529 167.709 590.634 167.544 589.869 167.214C589.122 166.867 588.548 166.397 588.149 165.807C587.749 165.198 587.549 164.503 587.549 163.721C587.549 163.009 587.714 162.366 588.045 161.792C588.392 161.202 588.948 160.732 589.713 160.385C590.495 160.02 591.537 159.838 592.841 159.838H597.559V161.219H592.893C591.572 161.219 590.651 161.454 590.13 161.923C589.626 162.392 589.374 162.974 589.374 163.669C589.374 164.451 589.678 165.077 590.286 165.546C590.894 166.015 591.746 166.25 592.841 166.25C593.883 166.25 594.778 166.015 595.525 165.546C596.29 165.059 596.846 164.364 597.194 163.461L597.611 164.738C597.263 165.642 596.655 166.363 595.786 166.901C594.935 167.44 593.857 167.709 592.554 167.709ZM602.585 167.579V166.354L611.708 154.807L612.099 155.432H602.742V153.895H613.559V155.094L604.462 166.667L603.993 166.041H613.741V167.579H602.585ZM617.384 167.579V153.895H619.235V167.579H617.384ZM618.322 150.871C617.94 150.871 617.619 150.741 617.358 150.48C617.097 150.219 616.967 149.906 616.967 149.542C616.967 149.177 617.097 148.872 617.358 148.629C617.619 148.369 617.94 148.238 618.322 148.238C618.705 148.238 619.026 148.36 619.287 148.603C619.547 148.846 619.678 149.151 619.678 149.515C619.678 149.898 619.547 150.219 619.287 150.48C619.043 150.741 618.722 150.871 618.322 150.871Z" fill="#FEFEFE"/>
</svg>
